<svg id="Layer_1" data-name="Layer 1" xmlns="http://www.w3.org/2000/svg" viewBox="0 0 293.03 250.07"><defs><style>.cls-1,.cls-3{fill:#393738;}.cls-2{fill:#ebbf69;}.cls-2,.cls-3{fill-rule:evenodd;}</style></defs><title>Pets Ai File</title><path class="cls-1" d="M484.74,253.2a7.16,7.16,0,0,0-1.61-.09l-23,1.1c-18.59.32-22.61-2.1-23.32-2.7l-.08-.11c-35.47-47.47-80.58-41.62-99.76-36.28l-6.26-48a7.43,7.43,0,0,0-.48-2.24,7.52,7.52,0,0,0-9.7-4.35c-97.94,37.47-107,187.9-107,188.34a7.5,7.5,0,0,0,15,.94c0-.4,7.94-131.78,88.54-171.38l6.23,47.76a7.51,7.51,0,0,0,8.41,6.47,8,8,0,0,0,2.18-.63c2.35-1.05,52.67-22.63,90.8,28.4a7.43,7.43,0,0,0,2.42,2.1c3.89,2.71,13.33,7.07,33.5,6.7h.23L483,268.13c3.68.85,6.32,5.25,7.63,11.5a53.65,53.65,0,0,1,0,19.44,76,76,0,0,1-7.75,22.65c-9.94,18.73-28.95,35.33-59,37.88,6.34-22,2.14-43.47,1.56-46.23a7.52,7.52,0,0,0-5.95-6.08,47.11,47.11,0,0,1-20.21-9.08c-19.43-33.85-47.68-34.36-59.71-32.78L323.7,239.85a8,8,0,0,0-.65-1,7.52,7.52,0,0,0-10.52-1.46c-73.26,55.43-54.33,161.74-54.28,162.05A7.51,7.51,0,0,0,273.06,397c-.05-.28-16.22-91.25,42.12-142.38l14.3,23.12A7.5,7.5,0,0,0,338,281h0c.08,0,29.53-9.07,48.84,25.75a7.56,7.56,0,0,0,1.47,1.87h0s8.48,8,23.12,12.21c2.28,16.71,4.69,73.8-69,74.28a7.5,7.5,0,0,0,.06,15c42.59-.28,64.26-16.25,75-35.15,40.51-.57,65.8-21.9,78.69-46.21a90.87,90.87,0,0,0,9.28-27.17,68.39,68.39,0,0,0-.09-25C502.65,263.83,495.59,254.81,484.74,253.2Z" transform="translate(-213.48 -160)"/><path class="cls-2" d="M424.64,260.39c-26-34.75-57.59-35.83-75.86-32.65-2.32,9-5.14,24.89-.56,37.24,14,.34,35.37,6,51,33.23,0,0,26.49,5.61,34.51-32.42a27.88,27.88,0,0,1-6.68-3.3A7.43,7.43,0,0,1,424.64,260.39Z" transform="translate(-213.48 -160)"/><path class="cls-3" d="M352.39,306.36a9.48,9.48,0,1,0,9.48,9.48A9.48,9.48,0,0,0,352.39,306.36Z" transform="translate(-213.48 -160)"/><circle class="cls-1" cx="387.18" cy="260.99" r="9.48" transform="translate(-219.31 -151.13) rotate(-1.3)"/></svg>